<svg width="201" height="18" viewBox="0 0 201 18" fill="none" xmlns="http://www.w3.org/2000/svg">
<g clip-path="url(#clip0_540_320)">
<path d="M7.66339 17.3123H5.54612V2.37378H0.299988V0.515282H12.886V2.37378H7.66339V17.3123ZM27.3226 17.3123H25.2053V9.47841H16.5951V17.3123H14.4778V0.515282H16.5951V7.61991H25.2053V0.515282H27.3226V17.3123ZM40.3605 17.3123H30.9739V0.515282H40.3605V2.37378H33.0912V7.61991H39.9371V9.45488H33.0912V15.4538H40.3605V17.3123ZM47.7604 16.1284H58.7879V17.5183H47.7604V16.1284ZM57.6171 16.1284H68.6445V17.5183H57.6171V16.1284ZM86.4503 12.819C86.4503 13.8227 86.2072 14.6775 85.721 15.3832C85.2348 16.0733 84.5369 16.6066 83.6272 16.983C82.7333 17.3594 81.6746 17.5476 80.4513 17.5476C79.824 17.5476 79.2202 17.5162 78.6399 17.4535C78.0754 17.3907 77.5579 17.3045 77.0874 17.1947C76.6169 17.0692 76.2013 16.9202 75.8405 16.7477V14.7245C76.4051 14.9755 77.1031 15.2029 77.9343 15.4068C78.781 15.6107 79.6515 15.7126 80.5454 15.7126C81.3767 15.7126 82.0746 15.6028 82.6392 15.3832C83.2038 15.1637 83.6272 14.85 83.9095 14.4422C84.1918 14.0345 84.333 13.5561 84.333 13.0072C84.333 12.4583 84.2154 11.9956 83.9801 11.6192C83.7449 11.2428 83.3371 10.8978 82.7568 10.5841C82.1922 10.2547 81.4002 9.9097 80.3808 9.54898C79.6593 9.28236 79.0241 9.00006 78.4754 8.70207C77.9421 8.3884 77.4951 8.03552 77.1344 7.64344C76.7737 7.25135 76.4992 6.80437 76.311 6.3025C76.1385 5.80062 76.0523 5.22033 76.0523 4.56163C76.0523 3.66767 76.2797 2.90702 76.7345 2.27968C77.1893 1.63665 77.8167 1.14262 78.6164 0.797585C79.4319 0.452548 80.3651 0.280029 81.4159 0.280029C82.3412 0.280029 83.1881 0.366289 83.9566 0.538806C84.7251 0.711326 85.423 0.938737 86.0503 1.22104L85.3916 3.03249C84.8113 2.78155 84.1762 2.56982 83.4861 2.3973C82.8117 2.22478 82.1059 2.13853 81.3688 2.13853C80.6631 2.13853 80.0749 2.24047 79.6044 2.44435C79.1339 2.64824 78.781 2.93838 78.5458 3.31479C78.3107 3.67551 78.1931 4.09896 78.1931 4.58515C78.1931 5.14976 78.3107 5.62026 78.5458 5.99667C78.781 6.37307 79.1653 6.71027 79.6985 7.00825C80.2318 7.30624 80.9532 7.62775 81.8628 7.97279C82.8509 8.33351 83.6821 8.7256 84.3565 9.14905C85.0466 9.55682 85.5642 10.0509 85.9092 10.6311C86.2699 11.2114 86.4503 11.9407 86.4503 12.819ZM93.2687 8.77265L97.6444 0.515282H99.9263L94.3273 10.7958V17.3123H92.21V10.8899L86.611 0.515282H88.9165L93.2687 8.77265ZM110.804 12.819C110.804 13.8227 110.561 14.6775 110.075 15.3832C109.589 16.0733 108.891 16.6066 107.981 16.983C107.087 17.3594 106.029 17.5476 104.805 17.5476C104.178 17.5476 103.574 17.5162 102.994 17.4535C102.429 17.3907 101.912 17.3045 101.441 17.1947C100.971 17.0692 100.555 16.9202 100.195 16.7477V14.7245C100.759 14.9755 101.457 15.2029 102.288 15.4068C103.135 15.6107 104.006 15.7126 104.9 15.7126C105.731 15.7126 106.429 15.6028 106.993 15.3832C107.558 15.1637 107.981 14.85 108.264 14.4422C108.546 14.0345 108.687 13.5561 108.687 13.0072C108.687 12.4583 108.57 11.9956 108.334 11.6192C108.099 11.2428 107.691 10.8978 107.111 10.5841C106.546 10.2547 105.754 9.9097 104.735 9.54898C104.013 9.28236 103.378 9.00006 102.829 8.70207C102.296 8.3884 101.849 8.03552 101.488 7.64344C101.128 7.25135 100.853 6.80437 100.665 6.3025C100.492 5.80062 100.406 5.22033 100.406 4.56163C100.406 3.66767 100.634 2.90702 101.088 2.27968C101.543 1.63665 102.171 1.14262 102.97 0.797585C103.786 0.452548 104.719 0.280029 105.77 0.280029C106.695 0.280029 107.542 0.366289 108.311 0.538806C109.079 0.711326 109.777 0.938737 110.404 1.22104L109.746 3.03249C109.165 2.78155 108.53 2.56982 107.84 2.3973C107.166 2.22478 106.46 2.13853 105.723 2.13853C105.017 2.13853 104.429 2.24047 103.959 2.44435C103.488 2.64824 103.135 2.93838 102.9 3.31479C102.665 3.67551 102.547 4.09896 102.547 4.58515C102.547 5.14976 102.665 5.62026 102.9 5.99667C103.135 6.37307 103.519 6.71027 104.053 7.00825C104.586 7.30624 105.307 7.62775 106.217 7.97279C107.205 8.33351 108.036 8.7256 108.711 9.14905C109.401 9.55682 109.918 10.0509 110.263 10.6311C110.624 11.2114 110.804 11.9407 110.804 12.819ZM118.564 17.3123H116.447V2.37378H111.2V0.515282H123.786V2.37378H118.564V17.3123ZM134.765 17.3123H125.378V0.515282H134.765V2.37378H127.496V7.61991H134.341V9.45488H127.496V15.4538H134.765V17.3123ZM144.92 17.3123L139.392 2.58551H139.297C139.329 2.89918 139.352 3.29911 139.368 3.78529C139.399 4.27148 139.423 4.80472 139.439 5.38501C139.454 5.94962 139.462 6.52991 139.462 7.12588V17.3123H137.509V0.515282H140.638L145.814 14.2776H145.908L151.178 0.515282H154.283V17.3123H152.189V6.98473C152.189 6.43581 152.197 5.89473 152.213 5.36149C152.228 4.81256 152.252 4.30285 152.283 3.83234C152.315 3.34616 152.338 2.93838 152.354 2.60903H152.26L146.661 17.3123H144.92ZM163.081 17.3123V0.515282H165.199V15.4303H172.539V17.3123H163.081ZM185.016 17.3123L182.993 12.1132H176.336L174.336 17.3123H172.195L178.759 0.444707H180.664L187.204 17.3123H185.016ZM180.476 5.14976C180.429 5.02429 180.351 4.79688 180.241 4.46753C180.131 4.13817 180.021 3.80098 179.911 3.45594C179.817 3.09522 179.739 2.82076 179.676 2.63256C179.598 2.94623 179.511 3.26774 179.417 3.59709C179.339 3.91076 179.253 4.20091 179.159 4.46753C179.08 4.73415 179.01 4.96156 178.947 5.14976L177.041 10.2312H182.358L180.476 5.14976ZM193.36 0.515282C194.756 0.515282 195.924 0.648592 196.865 0.915212C197.822 1.18183 198.536 1.62097 199.006 2.23263C199.492 2.84428 199.735 3.65983 199.735 4.67925C199.735 5.33796 199.61 5.92609 199.359 6.44365C199.124 6.94552 198.763 7.36898 198.277 7.71401C197.806 8.04337 197.226 8.27078 196.536 8.39625V8.51387C197.242 8.62366 197.877 8.82754 198.441 9.12553C199.022 9.42352 199.477 9.84697 199.806 10.3959C200.135 10.9448 200.3 11.6584 200.3 12.5367C200.3 13.5561 200.065 14.4266 199.594 15.148C199.124 15.8538 198.449 16.3948 197.571 16.7712C196.708 17.132 195.673 17.3123 194.466 17.3123H188.561V0.515282H193.36ZM193.783 7.66696C195.226 7.66696 196.214 7.43955 196.748 6.98473C197.281 6.51422 197.548 5.82415 197.548 4.91451C197.548 3.98918 197.218 3.33047 196.559 2.93838C195.916 2.53061 194.881 2.32673 193.454 2.32673H190.678V7.66696H193.783ZM190.678 9.43136V15.5244H194.066C195.556 15.5244 196.591 15.2343 197.171 14.654C197.751 14.0737 198.042 13.313 198.042 12.372C198.042 11.776 197.908 11.2585 197.642 10.8193C197.391 10.3802 196.959 10.043 196.348 9.80776C195.752 9.55682 194.936 9.43136 193.901 9.43136H190.678Z" fill="white"/>
</g>
<defs>
<clipPath id="clip0_540_320">
<rect width="201" height="18" fill="white"/>
</clipPath>
</defs>
</svg>
