<svg width="256" height="27" viewBox="0 0 256 27" fill="none" xmlns="http://www.w3.org/2000/svg">
<path d="M9.69 22H6.99V2.95H0.3V0.579999H16.35V2.95H9.69V22ZM34.7599 22H32.0599V12.01H21.0799V22H18.3799V0.579999H21.0799V9.64H32.0599V0.579999H34.7599V22ZM51.3862 22H39.4162V0.579999H51.3862V2.95H42.1162V9.64H50.8462V11.98H42.1162V19.63H51.3862V22ZM60.8227 24.4902H74.8852V26.2627H60.8227V24.4902ZM73.3922 24.4902H87.4547V26.2627H73.3922V24.4902ZM110.161 16.27C110.161 17.55 109.851 18.64 109.231 19.54C108.611 20.42 107.721 21.1 106.561 21.58C105.421 22.06 104.071 22.3 102.511 22.3C101.711 22.3 100.941 22.26 100.201 22.18C99.4812 22.1 98.8212 21.99 98.2212 21.85C97.6212 21.69 97.0912 21.5 96.6312 21.28V18.7C97.3512 19.02 98.2412 19.31 99.3012 19.57C100.381 19.83 101.491 19.96 102.631 19.96C103.691 19.96 104.581 19.82 105.301 19.54C106.021 19.26 106.561 18.86 106.921 18.34C107.281 17.82 107.461 17.21 107.461 16.51C107.461 15.81 107.311 15.22 107.011 14.74C106.711 14.26 106.191 13.82 105.451 13.42C104.731 13 103.721 12.56 102.421 12.1C101.501 11.76 100.691 11.4 99.9912 11.02C99.3112 10.62 98.7412 10.17 98.2812 9.67C97.8212 9.17 97.4712 8.6 97.2312 7.96C97.0112 7.32 96.9012 6.58 96.9012 5.74C96.9012 4.6 97.1912 3.63 97.7712 2.83C98.3512 2.01 99.1512 1.38 100.171 0.939999C101.211 0.499999 102.401 0.279999 103.741 0.279999C104.921 0.279999 106.001 0.389999 106.981 0.609998C107.961 0.829999 108.851 1.12 109.651 1.48L108.811 3.79C108.071 3.47 107.261 3.2 106.381 2.98C105.521 2.76 104.621 2.65 103.681 2.65C102.781 2.65 102.031 2.78 101.431 3.04C100.831 3.3 100.381 3.67 100.081 4.15C99.7812 4.61 99.6312 5.15 99.6312 5.77C99.6312 6.49 99.7812 7.09 100.081 7.57C100.381 8.05 100.871 8.48 101.551 8.86C102.231 9.24 103.151 9.65 104.311 10.09C105.571 10.55 106.631 11.05 107.491 11.59C108.371 12.11 109.031 12.74 109.471 13.48C109.931 14.22 110.161 15.15 110.161 16.27ZM118.856 11.11L124.436 0.579999H127.346L120.206 13.69V22H117.506V13.81L110.366 0.579999H113.306L118.856 11.11ZM141.218 16.27C141.218 17.55 140.908 18.64 140.288 19.54C139.668 20.42 138.778 21.1 137.618 21.58C136.478 22.06 135.128 22.3 133.568 22.3C132.768 22.3 131.998 22.26 131.258 22.18C130.538 22.1 129.878 21.99 129.278 21.85C128.678 21.69 128.148 21.5 127.688 21.28V18.7C128.408 19.02 129.298 19.31 130.358 19.57C131.438 19.83 132.548 19.96 133.688 19.96C134.748 19.96 135.638 19.82 136.358 19.54C137.078 19.26 137.618 18.86 137.978 18.34C138.338 17.82 138.518 17.21 138.518 16.51C138.518 15.81 138.368 15.22 138.068 14.74C137.768 14.26 137.248 13.82 136.508 13.42C135.788 13 134.778 12.56 133.478 12.1C132.558 11.76 131.748 11.4 131.048 11.02C130.368 10.62 129.798 10.17 129.338 9.67C128.878 9.17 128.528 8.6 128.288 7.96C128.068 7.32 127.958 6.58 127.958 5.74C127.958 4.6 128.248 3.63 128.828 2.83C129.408 2.01 130.208 1.38 131.228 0.939999C132.268 0.499999 133.458 0.279999 134.798 0.279999C135.978 0.279999 137.058 0.389999 138.038 0.609998C139.018 0.829999 139.908 1.12 140.708 1.48L139.868 3.79C139.128 3.47 138.318 3.2 137.438 2.98C136.578 2.76 135.678 2.65 134.738 2.65C133.838 2.65 133.088 2.78 132.488 3.04C131.888 3.3 131.438 3.67 131.138 4.15C130.838 4.61 130.688 5.15 130.688 5.77C130.688 6.49 130.838 7.09 131.138 7.57C131.438 8.05 131.928 8.48 132.608 8.86C133.288 9.24 134.208 9.65 135.368 10.09C136.628 10.55 137.688 11.05 138.548 11.59C139.428 12.11 140.088 12.74 140.528 13.48C140.988 14.22 141.218 15.15 141.218 16.27ZM151.113 22H148.413V2.95H141.723V0.579999H157.773V2.95H151.113V22ZM171.773 22H159.803V0.579999H171.773V2.95H162.503V9.64H171.233V11.98H162.503V19.63H171.773V22ZM184.723 22L177.673 3.22H177.553C177.593 3.62 177.623 4.13 177.643 4.75C177.683 5.37 177.713 6.05 177.733 6.79C177.753 7.51 177.763 8.25 177.763 9.01V22H175.273V0.579999H179.263L185.863 18.13H185.983L192.703 0.579999H196.663V22H193.993V8.83C193.993 8.13 194.003 7.44 194.023 6.76C194.043 6.06 194.073 5.41 194.113 4.81C194.153 4.19 194.183 3.67 194.203 3.25H194.083L186.943 22H184.723ZM207.883 22V0.579999H210.583V19.6H219.943V22H207.883ZM235.855 22L233.275 15.37H224.785L222.235 22H219.505L227.875 0.49H230.305L238.645 22H235.855ZM230.065 6.49C230.005 6.33 229.905 6.04 229.765 5.62C229.625 5.2 229.485 4.77 229.345 4.33C229.225 3.87 229.125 3.52 229.045 3.28C228.945 3.68 228.835 4.09 228.715 4.51C228.615 4.91 228.505 5.28 228.385 5.62C228.285 5.96 228.195 6.25 228.115 6.49L225.685 12.97H232.465L230.065 6.49ZM246.495 0.579999C248.275 0.579999 249.765 0.749999 250.965 1.09C252.185 1.43 253.095 1.99 253.695 2.77C254.315 3.55 254.625 4.59 254.625 5.89C254.625 6.73 254.465 7.48 254.145 8.14C253.845 8.78 253.385 9.32 252.765 9.76C252.165 10.18 251.425 10.47 250.545 10.63V10.78C251.445 10.92 252.255 11.18 252.975 11.56C253.715 11.94 254.295 12.48 254.715 13.18C255.135 13.88 255.345 14.79 255.345 15.91C255.345 17.21 255.045 18.32 254.445 19.24C253.845 20.14 252.985 20.83 251.865 21.31C250.765 21.77 249.445 22 247.905 22H240.375V0.579999H246.495ZM247.035 9.7C248.875 9.7 250.135 9.41 250.815 8.83C251.495 8.23 251.835 7.35 251.835 6.19C251.835 5.01 251.415 4.17 250.575 3.67C249.755 3.15 248.435 2.89 246.615 2.89H243.075V9.7H247.035ZM243.075 11.95V19.72H247.395C249.295 19.72 250.615 19.35 251.355 18.61C252.095 17.87 252.465 16.9 252.465 15.7C252.465 14.94 252.295 14.28 251.955 13.72C251.635 13.16 251.085 12.73 250.305 12.43C249.545 12.11 248.505 11.95 247.185 11.95H243.075Z" fill="white"/>
</svg>
